<svg xmlns="http://www.w3.org/2000/svg" width="40" height="41" viewBox="0 0 40 41" fill="none">
  <path d="M21.5445 16.8822C22.6615 15.7503 23.7486 15.0055 24.9847 14.5289C25.1932 14.4396 25.4315 14.3502 25.5059 14.3353C25.5804 14.3055 25.6995 14.2608 25.8038 14.231C25.8931 14.2161 26.1016 14.1566 26.3101 14.1119C28.3653 13.5757 30.9566 13.6501 33.2947 14.3204C34.4712 14.663 35.3201 14.663 35.9754 14.3204C36.6008 13.9927 37.0327 13.5012 37.271 12.7863C37.3604 12.5331 37.5093 11.6394 37.4646 11.6096C37.4497 11.5947 37.1965 11.6394 36.9136 11.7288C36.4072 11.8926 36.0647 11.9373 34.918 12.1011C34.3223 12.1905 31.18 12.2054 27.3377 12.1756C25.4166 12.1607 25.0294 12.1607 24.6124 12.2501C23.6295 12.4586 23.7337 12.4288 22.7657 12.8756C22.6466 12.9352 22.5125 12.9948 22.4977 13.0246C22.4828 13.0395 22.3338 13.1288 22.17 13.2182C22.0062 13.3076 21.8275 13.4118 21.7977 13.4714C21.7679 13.5012 21.6935 13.5608 21.6488 13.5608C21.619 13.5608 21.5445 13.5906 21.4999 13.6501C21.4701 13.6799 21.3062 13.814 21.1573 13.9183C21.0382 14.0225 20.8297 14.1863 20.7403 14.2608L20.5765 14.4247L20.3978 14.3055C19.8766 13.9331 18.3724 13.248 17.6427 13.0544C17.4789 13.0246 17.2704 12.9501 17.181 12.9352C17.0023 12.8756 16.496 12.7714 15.8407 12.6671C15.1408 12.548 13.309 12.5629 12.7133 12.682C11.6261 12.9203 10.3603 13.3969 9.54118 13.9034C9.36247 14.0076 9.16887 14.1119 9.09441 14.1566C9.03484 14.1715 8.99016 14.2161 8.99016 14.2459C8.99016 14.2608 8.90081 14.3353 8.79656 14.3651C8.69231 14.3949 8.60295 14.4693 8.60295 14.4842C8.60295 14.4991 8.5136 14.5736 8.40936 14.6034C8.30511 14.6332 8.21575 14.7077 8.21575 14.7225C8.21575 14.7374 8.12639 14.8268 8.02215 14.8864C7.9179 14.9609 7.78387 15.0502 7.75408 15.08C7.7243 15.1098 7.5158 15.2587 7.36688 15.4226C7.18817 15.5715 6.84564 15.8694 6.60736 16.0928L6.16059 16.5099L6.59247 16.2567C7.11371 15.9588 8.37957 15.3183 8.49871 15.3183C8.52849 15.3183 8.61785 15.3034 8.67742 15.2587C9.04973 15.08 9.80925 14.8417 10.8219 14.6332C11.9389 14.38 13.9196 14.3353 14.8876 14.514C15.6918 14.663 16.2428 14.797 16.7343 14.9906C17.4342 15.2587 18.6703 15.9588 18.849 16.1673C18.8639 16.1822 19.0128 16.2865 19.1468 16.4056C19.2958 16.5099 19.683 16.8673 20.0106 17.2099C20.3531 17.5525 20.6212 17.8206 20.6361 17.8206C20.651 17.7908 21.0382 17.4035 21.5445 16.8822Z" fill="white"/>
  <path d="M4.12032 15.3332C4.13521 15.2588 4.1501 15.08 4.19478 14.9609C4.20967 14.8417 4.26925 14.5736 4.29903 14.3502C4.40328 13.68 4.49263 13.1735 4.5522 12.831C4.58199 12.5331 4.62666 12.5033 4.82027 12.4437C5.07344 12.3692 5.1479 12.3246 5.25215 12.1011C5.3564 11.9224 5.23726 11.4756 5.07344 11.3266C4.9692 11.2522 4.9543 11.2075 4.99898 11.133C5.02876 11.1032 5.08833 10.9841 5.10323 10.9245C5.11812 10.85 5.22236 10.5521 5.3415 10.2393C5.44575 9.94145 5.52021 9.67335 5.50532 9.62866C5.44575 9.5393 5.3415 9.55419 5.3415 9.65845C5.3415 9.71803 5.32661 9.82229 5.28194 9.86698C5.22237 9.97124 5.02876 10.4777 4.86494 10.9543C4.79048 11.1628 4.7607 11.2075 4.56709 11.2075C4.26925 11.2075 4.01608 11.4756 4.01608 11.8181C4.01608 11.982 4.04586 12.1607 4.12032 12.2352C4.20967 12.3543 4.19478 12.399 3.9565 12.7118C3.80758 12.9054 3.52462 13.3225 3.31612 13.6204C3.10763 13.9183 2.92892 14.1864 2.89914 14.2162C2.88425 14.231 2.79489 14.3651 2.70553 14.4842C2.61618 14.6034 2.52682 14.7375 2.46725 14.7672C2.43747 14.7821 2.43747 14.8417 2.48214 14.8715C2.58639 14.946 2.73532 14.8864 2.89914 14.7226C2.92892 14.6928 3.06295 14.5736 3.1672 14.5289L3.34591 14.4098V14.5736C3.34591 14.663 3.31612 14.8268 3.27145 14.9162C3.19698 15.1098 3.25656 15.2439 3.47994 15.2885C3.55441 15.3034 3.73312 15.363 3.83736 15.3928C4.06075 15.4822 4.07564 15.4822 4.12032 15.3332Z" fill="white"/>
  <path d="M8.72209 12.0565C8.79656 12.0267 8.87102 11.9671 8.88591 11.9522C8.9008 11.9373 9.04973 11.8479 9.21355 11.7735C9.80925 11.4905 10.122 11.3564 10.2113 11.3564C10.2709 11.3564 10.3156 11.3415 10.3305 11.2968C10.3454 11.267 10.4347 11.2224 10.5092 11.2075C10.5985 11.1926 10.7624 11.133 10.8815 11.1032C12.2665 10.716 13.2643 10.567 14.5004 10.567C15.2897 10.567 16.5109 10.6862 16.8981 10.8053L17.0619 10.8351L17.0023 10.2244C16.9874 9.88186 16.9427 9.49461 16.9427 9.34566V9.07757L17.464 8.89883C17.7469 8.79457 18.2533 8.61584 18.5809 8.51158C18.9086 8.40731 19.1915 8.30306 19.2064 8.25837C19.2213 8.24348 19.3255 8.19879 19.4447 8.16901C19.5489 8.15411 19.7276 8.07964 19.8319 8.04985C20.0851 7.94559 20.3085 7.87112 21.1275 7.58812C21.4701 7.46897 21.7232 7.3796 21.6786 7.34981C21.6488 7.34981 21.5594 7.33492 21.485 7.33492C21.4105 7.32002 21.1275 7.27534 20.8595 7.23066C20.5914 7.20087 20.2489 7.12639 20.1 7.1115C19.951 7.08171 19.7425 7.03703 19.6383 7.00724C19.534 6.99235 19.3404 6.94766 19.2064 6.93277C19.0873 6.91788 18.8341 6.87319 18.6554 6.8434C18.4767 6.81361 18.1341 6.75403 17.8959 6.72424C17.2853 6.61998 16.7789 6.53062 16.5109 6.45615C16.3917 6.42636 16.0045 6.36678 15.6918 6.33699C15.3641 6.3072 15.0216 6.23273 14.9323 6.21783C14.8429 6.18805 14.6344 6.14336 14.4706 6.12847C14.3068 6.11357 14.0238 6.054 13.8302 6.02421C12.5197 5.771 12.0282 5.72632 11.8197 5.81569C11.7453 5.84548 11.5219 5.93484 11.3581 6.02421C11.1794 6.09868 10.9113 6.21783 10.7475 6.29231C10.5837 6.36678 10.4496 6.41146 10.4049 6.41146C10.3752 6.41146 10.1518 6.50083 9.94328 6.59019C9.705 6.69446 9.42204 6.82851 9.3029 6.8583C9.18376 6.88809 8.88591 7.02213 8.66252 7.1264C8.45403 7.23066 8.23064 7.30513 8.20086 7.30513C8.17107 7.30513 7.96258 7.39449 7.73919 7.49876C7.5307 7.60302 7.30731 7.69238 7.27752 7.69238C7.20306 7.69238 6.54779 7.96048 6.05634 8.16901C5.87763 8.24348 5.62446 8.34774 5.50531 8.40732C5.38618 8.46689 5.17768 8.52647 5.05854 8.58605C4.9543 8.64563 4.76069 8.7052 4.62666 8.76478C4.52241 8.79457 4.26924 8.91373 4.09053 8.9733C3.91182 9.04778 3.71822 9.13714 3.65865 9.13714C3.59908 9.15204 3.67354 9.16693 3.82246 9.21162C3.97139 9.22651 4.37349 9.31588 4.73091 9.39035C5.10322 9.46482 5.46064 9.5095 5.57978 9.5095C5.68402 9.5095 5.81806 9.5244 5.86274 9.56908C5.9223 9.59887 6.11591 9.64355 6.27973 9.67334C6.89032 9.74782 7.88811 9.92655 8.02215 9.97123C8.14129 10.001 8.17107 10.0904 8.20086 10.5074C8.23064 11.0734 8.45403 12.1309 8.49871 12.116C8.55828 12.1458 8.63274 12.0862 8.72209 12.0565Z" fill="white"/>
  <path d="M33.6819 30.317C34.8584 29.6468 35.7966 28.7382 36.4966 27.5616C37.1965 26.3849 37.5391 25.0593 37.5391 23.5698C37.5391 22.0804 37.1965 20.7548 36.4966 19.5781C35.8115 18.4015 34.8733 17.478 33.6819 16.8227C32.5054 16.1524 31.2098 15.8396 29.795 15.8396C28.3802 15.8396 27.0696 16.1673 25.8931 16.8227C24.7166 17.4929 23.7784 18.4015 23.0933 19.5781C22.4083 20.7548 22.0658 22.0804 22.0658 23.5698C22.0658 25.0593 22.4083 26.3849 23.0933 27.5616C23.7784 28.7382 24.7017 29.6766 25.8931 30.317C27.0696 30.9873 28.3802 31.3001 29.795 31.3001C31.18 31.315 32.4905 30.9724 33.6819 30.317ZM27.0994 28.4701C26.3101 28.0084 25.6995 27.353 25.2528 26.5189C24.806 25.67 24.5826 24.6869 24.5826 23.5698C24.5826 22.4528 24.7911 21.4697 25.2528 20.6356C25.6995 19.7867 26.3101 19.1462 27.0994 18.6994C27.8887 18.2525 28.7823 18.0142 29.7801 18.0142C30.7779 18.0142 31.6714 18.2525 32.4607 18.6994C33.25 19.1462 33.8606 19.7867 34.3074 20.6356C34.7542 21.4846 34.9776 22.4677 34.9776 23.5698C34.9776 24.672 34.7691 25.67 34.3074 26.5189C33.8606 27.3828 33.25 28.0233 32.4607 28.4701C31.6714 28.9318 30.7779 29.1553 29.7801 29.1553C28.7823 29.1404 27.8887 28.9318 27.0994 28.4701Z" fill="white"/>
  <path d="M16.5853 30.317C17.7618 29.6468 18.7001 28.7382 19.4 27.5616C20.1 26.3849 20.4425 25.0593 20.4425 23.5698C20.4425 22.0804 20.1 20.7548 19.4 19.5781C18.715 18.4015 17.7767 17.478 16.5853 16.8227C15.4088 16.1524 14.1132 15.8396 12.6984 15.8396C11.2836 15.8396 9.97306 16.1673 8.79655 16.8227C7.62005 17.4929 6.68182 18.4015 5.99677 19.5781C5.31171 20.7548 4.96918 22.0804 4.96918 23.5698C4.96918 25.0593 5.31171 26.3849 5.99677 27.5616C6.68182 28.7382 7.60516 29.6766 8.79655 30.317C9.97306 30.9873 11.2836 31.3001 12.6984 31.3001C14.1132 31.315 15.4088 30.9724 16.5853 30.317ZM10.0177 28.4701C9.22844 28.0084 8.61785 27.353 8.17107 26.5189C7.7243 25.67 7.50091 24.6869 7.50091 23.5698C7.50091 22.4528 7.70941 21.4697 8.17107 20.6356C8.61785 19.7867 9.22844 19.1462 10.0177 18.6994C10.807 18.2525 11.7006 18.0142 12.6984 18.0142C13.6962 18.0142 14.6046 18.2525 15.379 18.6994C16.1683 19.1462 16.7789 19.7867 17.2257 20.6356C17.6725 21.4846 17.8661 22.4379 17.8661 23.5698C17.8661 24.6869 17.6576 25.67 17.1959 26.5189C16.7491 27.3828 16.1386 28.0233 15.3493 28.4701C14.5599 28.9318 13.6664 29.1553 12.6686 29.1553C11.7006 29.1404 10.807 28.9318 10.0177 28.4701Z" fill="white"/>
  <path d="M19.1319 31.5384C19.3107 32.0299 19.5191 32.4916 19.7425 32.9384C20.3829 34.2343 21.0978 35.1875 21.2467 35.1875C21.485 35.1875 22.2743 34.2343 22.9593 32.9533C23.1827 32.5363 23.4061 32.0746 23.5997 31.5979C22.6615 30.1532 21.5445 29.1106 21.2169 29.1106C21.0084 29.1106 20.0106 30.1234 19.1319 31.5384Z" fill="white"/>
  <path d="M9.42204 23.555C9.42204 24.0167 9.51139 24.4486 9.69011 24.8359C9.98796 25.521 10.5092 26.1019 11.1645 26.4445C11.6261 26.6977 12.1474 26.8317 12.7133 26.8317C14.1727 26.8317 15.4088 25.8785 15.8407 24.5529C15.945 24.2401 15.9896 23.8975 15.9896 23.555C15.9896 23.3911 15.9747 23.2273 15.945 23.0634C15.9152 22.8698 15.8705 22.6762 15.796 22.4826C15.5875 21.8719 15.2003 21.3357 14.694 20.9484C14.143 20.5314 13.4579 20.2782 12.6984 20.2782C12.2963 20.2782 11.9091 20.3527 11.5517 20.4867C11.5963 20.4867 11.641 20.4867 11.6857 20.4867C12.3261 20.4867 12.9069 20.7846 13.2494 21.2612C13.4728 21.5442 13.5919 21.9017 13.5919 22.2889C13.5919 23.272 12.7431 24.0763 11.7006 24.0763C10.673 24.0763 9.85392 23.3166 9.80924 22.3634C9.80924 22.3336 9.80924 22.3038 9.80924 22.2889C9.80924 22.1996 9.80924 22.1102 9.82414 22.0208C9.74968 22.1549 9.69011 22.2889 9.63054 22.4379C9.4965 22.7804 9.43693 23.1677 9.43693 23.555C9.42204 23.5401 9.42204 23.555 9.42204 23.555Z" fill="white"/>
  <path d="M26.5335 23.555C26.5335 23.9124 26.5931 24.2401 26.6973 24.5529C27.1143 25.8785 28.3653 26.8317 29.8248 26.8317C30.3758 26.8317 30.897 26.6977 31.3587 26.4445C32.0288 26.087 32.5501 25.521 32.8479 24.821C33.0117 24.4337 33.1011 23.9869 33.1011 23.5401C33.1011 23.5252 33.1011 23.5252 33.1011 23.5103C33.1011 23.0783 33.0117 22.6762 32.8628 22.3038C32.8181 22.1996 32.7735 22.0804 32.7139 21.9761C32.7288 22.0655 32.7288 22.14 32.7288 22.2293V22.2442C32.7288 23.2273 31.8799 24.0316 30.8374 24.0316C29.795 24.0316 28.9461 23.2273 28.9461 22.2442C28.9461 21.857 29.0801 21.4846 29.3184 21.1867C29.6609 20.7399 30.2269 20.4569 30.8523 20.4569C30.897 20.4569 30.9417 20.4569 30.9864 20.4569C30.6289 20.3229 30.2417 20.2484 29.8396 20.2484C29.1099 20.2484 28.4249 20.4867 27.8887 20.9037C27.3526 21.3059 26.9356 21.8719 26.7271 22.5272C26.6675 22.6911 26.6378 22.8698 26.608 23.0485C26.5484 23.2273 26.5335 23.3911 26.5335 23.555Z" fill="white"/>
</svg>