<svg xmlns="http://www.w3.org/2000/svg" width="24" height="24" viewBox="0 0 24 25" fill="none">
  <path d="M6.75 3.5H17.25C17.7141 3.5 18.1592 3.68964 18.4874 4.02721C18.8156 4.36477 19 4.82261 19 5.3V19.7C19 20.1774 18.8156 20.6352 18.4874 20.9728C18.1592 21.3104 17.7141 21.5 17.25 21.5H6.75C6.28587 21.5 5.84075 21.3104 5.51256 20.9728C5.18437 20.6352 5 20.1774 5 19.7V5.3C5 4.82261 5.18437 4.36477 5.51256 4.02721C5.84075 3.68964 6.28587 3.5 6.75 3.5ZM6.75 5.3V8.9H17.25V5.3H6.75Z" fill="#808080"/>
</svg>
