<svg width="40" height="40" viewBox="0 0 40 40" fill="none" xmlns="http://www.w3.org/2000/svg">
<path d="M20.0563 6C12.3739 6 6.11256 12.23 6.11256 19.874C6.11256 22.324 6.7598 24.704 7.96985 26.804L6 34L13.3869 32.068C15.4271 33.174 17.7206 33.762 20.0563 33.762C27.7387 33.762 34 27.532 34 19.888C34 16.178 32.5508 12.692 29.9196 10.074C27.2884 7.442 23.7849 6 20.0563 6ZM20.0704 8.338C23.1658 8.338 26.0643 9.542 28.2593 11.726C30.4402 13.91 31.6503 16.808 31.6503 19.888C31.6503 26.244 26.4442 31.41 20.0563 31.41C17.9739 31.41 15.9337 30.864 14.1608 29.8L13.7387 29.562L9.34874 30.71L10.5166 26.454L10.2352 26.006C9.08141 24.2 8.46231 22.058 8.46231 19.874C8.47638 13.518 13.6683 8.338 20.0704 8.338ZM15.1176 13.462C14.8925 13.462 14.5126 13.546 14.1889 13.896C13.8794 14.246 12.9648 15.1 12.9648 16.794C12.9648 18.502 14.2171 20.14 14.3719 20.378C14.5688 20.616 16.8482 24.116 20.3518 25.6C21.1819 25.978 21.8291 26.188 22.3357 26.342C23.1658 26.608 23.9256 26.566 24.5307 26.482C25.206 26.384 26.5849 25.642 26.8804 24.83C27.1759 24.018 27.1759 23.332 27.0915 23.178C26.993 23.038 26.7678 22.954 26.4161 22.8C26.0643 22.604 24.3477 21.764 24.0382 21.652C23.7146 21.54 23.5176 21.484 23.2503 21.82C23.0251 22.17 22.3497 22.954 22.1528 23.178C21.9417 23.416 21.7447 23.444 21.407 23.276C21.0412 23.094 19.9156 22.73 18.593 21.554C17.5518 20.63 16.8623 19.496 16.6513 19.146C16.4824 18.81 16.6372 18.6 16.806 18.446C16.9608 18.292 17.1859 18.04 17.3266 17.83C17.5095 17.634 17.5658 17.48 17.6784 17.256C17.791 17.018 17.7347 16.822 17.6503 16.654C17.5658 16.5 16.8623 14.764 16.5668 14.078C16.2854 13.406 16.004 13.49 15.7789 13.476C15.5819 13.476 15.3568 13.462 15.1176 13.462Z" fill="#EFF2F5"/>
</svg>
