<svg xmlns="http://www.w3.org/2000/svg" width="24" height="24" viewBox="0 0 24 25" fill="none">
  <path d="M22 6.5H9C7.9 6.5 7 7.33077 7 8.34615V16.6538C7 17.6785 7.9 18.5 9 18.5H22C23.11 18.5 24 17.6785 24 16.6538V8.34615C24 7.33077 23.11 6.5 22 6.5ZM22 9.88769L15.5 12.9615L9 9.88769V8.34615L15.5 11.4015L22 8.34615V9.88769ZM5 16.6538C5 16.8108 5.03 16.9585 5.05 17.1154H1C0.448 17.1154 0 16.7 0 16.1923C0 15.6846 0.448 15.2692 1 15.2692H5V16.6538ZM3 7.88462H5.05C5.03 8.04154 5 8.18923 5 8.34615V9.73077H3C2.45 9.73077 2 9.31538 2 8.80769C2 8.3 2.45 7.88462 3 7.88462ZM1 12.5C1 11.9923 1.45 11.5769 2 11.5769H5V13.4231H2C1.45 13.4231 1 13.0077 1 12.5Z" fill="#808080"/>
</svg>
