<svg xmlns="http://www.w3.org/2000/svg" width="24" height="24" viewBox="0 0 24 25" fill="none">
  <path d="M10 4.5C8.93913 4.5 7.92172 4.92143 7.17157 5.67157C6.42143 6.42172 6 7.43913 6 8.5C6 9.56087 6.42143 10.5783 7.17157 11.3284C7.92172 12.0786 8.93913 12.5 10 12.5C11.0609 12.5 12.0783 12.0786 12.8284 11.3284C13.5786 10.5783 14 9.56087 14 8.5C14 7.43913 13.5786 6.42172 12.8284 5.67157C12.0783 4.92143 11.0609 4.5 10 4.5ZM17 12.5C16.87 12.5 16.76 12.59 16.74 12.71L16.55 14.03C16.25 14.16 15.96 14.32 15.7 14.5L14.46 14C14.35 14 14.22 14 14.15 14.13L13.15 15.86C13.09 15.97 13.11 16.1 13.21 16.18L14.27 17C14.25 17.17 14.24 17.33 14.24 17.5C14.24 17.67 14.25 17.83 14.27 18L13.21 18.82C13.12 18.9 13.09 19.03 13.15 19.14L14.15 20.87C14.21 21 14.34 21 14.46 21L15.7 20.5C15.96 20.68 16.24 20.85 16.55 20.97L16.74 22.29C16.76 22.41 16.86 22.5 17 22.5H19C19.11 22.5 19.22 22.41 19.24 22.29L19.43 20.97C19.73 20.84 20 20.68 20.27 20.5L21.5 21C21.63 21 21.76 21 21.83 20.87L22.83 19.14C22.89 19.03 22.86 18.9 22.77 18.82L21.7 18C21.72 17.83 21.74 17.67 21.74 17.5C21.74 17.33 21.73 17.17 21.7 17L22.76 16.18C22.85 16.1 22.88 15.97 22.82 15.86L21.82 14.13C21.76 14 21.63 14 21.5 14L20.27 14.5C20 14.32 19.73 14.15 19.42 14.03L19.23 12.71C19.22 12.59 19.11 12.5 19 12.5H17ZM10 14.5C5.58 14.5 2 16.29 2 18.5V20.5H11.68C11.2337 19.5628 11.0014 18.538 11 17.5C11.002 16.4953 11.2203 15.5028 11.64 14.59C11.11 14.53 10.56 14.5 10 14.5ZM18 16C18.83 16 19.5 16.67 19.5 17.5C19.5 18.33 18.83 19 18 19C17.16 19 16.5 18.33 16.5 17.5C16.5 16.67 17.17 16 18 16Z" fill="#808080"/>
</svg>
